<svg xmlns="http://www.w3.org/2000/svg" viewBox="0 0 292.511 292.549">
  <g id="Logo" transform="translate(-384 27.66)">
    <circle id="Ellipse_1" data-name="Ellipse 1" cx="139.5" cy="139.5" r="139.5" transform="translate(384 -14.111)" fill="#1ed760"/>
    <path id="Tracé_3" data-name="Tracé 3" d="M153.34,3.726,142.882,14.184C192.281,67.9,181.7,132.344,142,172.045l11.288,11.288C208.468,128.271,197.929,56.781,153.34,3.726Z" transform="translate(411.938 104.643) rotate(-45)"/>
    <path id="Tracé_7" data-name="Tracé 7" d="M152.356,2.312,142.8,11.575c.034.034-1.491,1.308-1.252,1.547,38.8,38.8,28.418,82.3-.137,113.536l11.183,11.183C194.783,94.236,192.7,42.134,152.356,2.312Z" transform="translate(413.633 136.32) rotate(-45)"/>
    <path id="ic_build_24px" d="M2.226,79.93,42.3,39.855A28.264,28.264,0,0,1,48.907,9.468,29.113,29.113,0,0,1,81.5,3.743L62.559,22.679,75.771,35.891,95.148,16.954c5.285,10.569,3.083,23.781-5.725,32.589a28.264,28.264,0,0,1-30.387,6.606L18.961,96.224a4.257,4.257,0,0,1-6.165,0L2.667,86.1c-2.2-1.762-2.2-4.844-.44-6.165Z" transform="translate(425.014 124.789)"/>
    <path id="Tracé_3-2" data-name="Tracé 3" d="M106.251,24.439,95.032,35.726a22.155,22.155,0,0,1,0,25.979l11.22,11.286c13.49-13.49,13.49-33.859,0-48.552ZM128.357,2,117.471,12.886c18.5,20.169,18.5,50.489,0,71.726L128.357,95.5C154.4,69.518,154.469,29.047,128.357,2Z" transform="translate(431.108 149.173) rotate(-45)"/>
  </g>
</svg>
